<svg width="350" height="97" viewBox="0 0 350 97" fill="none" xmlns="http://www.w3.org/2000/svg">
<path d="M130.931 37.8182H135.959C135.729 31.3441 129.758 26.5043 121.461 26.5043C113.248 26.5043 106.795 31.2812 106.795 38.4886C106.795 44.2713 110.985 47.7074 117.689 49.6349L122.969 51.1435C127.495 52.4006 131.518 53.9929 131.518 58.267C131.518 62.9602 126.992 66.0611 121.042 66.0611C115.93 66.0611 111.404 63.7983 110.985 58.9375H105.621C106.124 65.9773 111.823 70.7543 121.042 70.7543C130.931 70.7543 136.546 65.3068 136.546 58.3509C136.546 50.3054 128.92 47.7074 124.478 46.5341L120.12 45.3608C116.935 44.5227 111.823 42.8466 111.823 38.2372C111.823 34.1307 115.594 31.1136 121.293 31.1136C126.489 31.1136 130.428 33.5859 130.931 37.8182ZM157.492 70.6705C166.208 70.6705 172.075 64.0497 172.075 54.0767C172.075 44.0199 166.208 37.3991 157.492 37.3991C148.777 37.3991 142.91 44.0199 142.91 54.0767C142.91 64.0497 148.777 70.6705 157.492 70.6705ZM157.492 66.2287C150.872 66.2287 147.855 60.5298 147.855 54.0767C147.855 47.6236 150.872 41.8409 157.492 41.8409C164.113 41.8409 167.13 47.6236 167.13 54.0767C167.13 60.5298 164.113 66.2287 157.492 66.2287ZM193.954 37.8182H186.746V34.5497C186.746 31.3651 188.087 29.6889 191.356 29.6889C192.78 29.6889 193.618 30.0241 194.121 30.1918L195.546 25.9176C194.792 25.5824 193.283 25.0795 190.853 25.0795C186.243 25.0795 181.802 27.8452 181.802 33.3764V37.8182H176.606V42.0085H181.802V70H186.746V42.0085H193.954V37.8182ZM214.879 37.8182H208.007V30.108H203.062V37.8182H198.202V42.0085H203.062V62.1222C203.062 67.7372 207.588 70.419 211.778 70.419C213.622 70.419 214.795 70.0838 215.466 69.8324L214.46 65.3906C214.041 65.4744 213.371 65.642 212.281 65.642C210.102 65.642 208.007 64.9716 208.007 60.7812V42.0085H214.879V37.8182ZM267.74 27.0909V55.0824C267.74 61.3679 263.424 65.8935 256.259 65.8935C249.093 65.8935 244.777 61.3679 244.777 55.0824V27.0909H239.581V55.5014C239.581 64.3011 246.16 70.7543 256.259 70.7543C266.358 70.7543 272.936 64.3011 272.936 55.5014V27.0909H267.74ZM288.509 27.0909H283.313V70H288.509V27.0909Z" fill="#5068E2"/>
<circle cx="46" cy="50" r="44" stroke="#5068E2" stroke-width="4"/>
<path d="M21.5627 24.1261C75.1995 24.1261 62.7336 59.7604 62.7898 65.2633L71.8752 74.4386H68.9553L61.0491 66.4425C56.6692 66.9142 47.0784 70.317 36.9709 62.2872C26.8411 54.2574 27.4026 44.6442 21.5627 24.1261ZM30.5134 29.2921C24.9319 26.653 29.9294 30.3253 29.9294 30.3253C35.0056 33.8292 37.3416 38.6022 40.0593 43.7906C43.5969 50.5514 48.9314 59.4796 56.2537 62.6241C63.5535 65.7687 60.0945 64.028 56.9275 61.6696C53.7605 59.2887 49.2683 51.899 46.7078 47.0475C43.1477 40.3092 39.8572 33.7281 30.5134 29.2921Z" fill="#5068E2"/>
</svg>
