<svg width="129" height="36" viewBox="0 0 129 36" fill="none" xmlns="http://www.w3.org/2000/svg">
<rect width="122" height="36" rx="4" fill="#0C2A4D"/>
<g clip-path="url(#clip0_303_16)">
<path d="M14.5213 5.4023C14.1942 5.7143 14 6.1953 14 6.8216V29.177C14 29.8033 14.1942 30.2866 14.5213 30.5963L14.6065 30.6689L28.5555 18.1477V17.8525L14.604 5.32812L14.5213 5.4023Z" fill="url(#paint0_linear_303_16)"/>
<path d="M33.2037 22.3235L28.5552 18.1474V17.8523L33.2054 13.6777L33.311 13.7313L38.8207 16.5408C40.3941 17.343 40.3941 18.656 38.8207 19.4597L33.311 22.2692L33.2037 22.3235Z" fill="url(#paint1_linear_303_16)"/>
<path d="M33.3101 22.2694L28.5551 18L14.521 30.5978C15.0398 31.091 15.8967 31.1514 16.861 30.6597L33.3101 22.2686" fill="url(#paint2_linear_303_16)"/>
<path d="M33.3104 13.7302L16.863 5.3398C15.8987 4.8481 15.0417 4.90851 14.5229 5.40175L28.5554 17.9995L33.3104 13.7302Z" fill="url(#paint3_linear_303_16)"/>
<path opacity="0.2" d="M33.206 22.1758L16.8633 30.5118C15.9484 30.9783 15.1324 30.9477 14.6076 30.5225L14.5225 30.599L14.6076 30.6716C15.1324 31.0953 15.9484 31.1305 16.8633 30.6609L33.3125 22.2698L33.206 22.1758Z" fill="black"/>
<path opacity="0.12" d="M14.5213 30.4506C14.1942 30.1386 14 29.6561 14 29.0313V29.1789C14 29.8052 14.1942 30.2885 14.5213 30.5982L14.6065 30.5217L14.5213 30.4506ZM38.8202 19.3119L33.2057 22.1765L33.3113 22.2713L38.821 19.4618C39.6073 19.0603 40.0008 18.5311 40.0008 18.002C39.9344 18.4791 39.5332 18.9487 38.8202 19.3119Z" fill="black"/>
<path opacity="0.25" d="M16.8628 5.48762L38.82 16.6883C39.5338 17.0515 39.9342 17.5218 39.9998 17.9997C39.9998 17.4705 39.6062 16.9421 38.82 16.5399L16.8628 5.34003C15.2878 4.53785 14.0015 5.20391 14.0015 6.82356V6.97115C13.9998 5.3515 15.286 4.68544 16.8628 5.48762Z" fill="white"/>
</g>
<path d="M42.5078 12V6.3125H44.2578C44.7578 6.3125 45.2044 6.42578 45.5977 6.65234C45.9935 6.8763 46.3021 7.19661 46.5234 7.61328C46.7448 8.02734 46.8555 8.4987 46.8555 9.02734V9.28906C46.8555 9.81771 46.7461 10.2878 46.5273 10.6992C46.3112 11.1107 46.0052 11.4297 45.6094 11.6562C45.2135 11.8828 44.7669 11.9974 44.2695 12H42.5078ZM43.6797 7.26172V11.0586H44.2461C44.7044 11.0586 45.0547 10.9089 45.2969 10.6094C45.5391 10.3099 45.6628 9.88151 45.668 9.32422V9.02344C45.668 8.44531 45.5482 8.00781 45.3086 7.71094C45.069 7.41146 44.7188 7.26172 44.2578 7.26172H43.6797ZM47.4609 9.84766C47.4609 9.42839 47.5417 9.05469 47.7031 8.72656C47.8646 8.39844 48.0964 8.14453 48.3984 7.96484C48.7031 7.78516 49.056 7.69531 49.457 7.69531C50.0273 7.69531 50.4922 7.86979 50.8516 8.21875C51.2135 8.56771 51.4154 9.04167 51.457 9.64062L51.4648 9.92969C51.4648 10.5781 51.2839 11.099 50.9219 11.4922C50.5599 11.8828 50.0742 12.0781 49.4648 12.0781C48.8555 12.0781 48.3685 11.8828 48.0039 11.4922C47.6419 11.1016 47.4609 10.5703 47.4609 9.89844V9.84766ZM48.5898 9.92969C48.5898 10.3307 48.6654 10.638 48.8164 10.8516C48.9674 11.0625 49.1836 11.168 49.4648 11.168C49.7383 11.168 49.9518 11.0638 50.1055 10.8555C50.2591 10.6445 50.3359 10.3086 50.3359 9.84766C50.3359 9.45443 50.2591 9.14974 50.1055 8.93359C49.9518 8.71745 49.7357 8.60938 49.457 8.60938C49.181 8.60938 48.9674 8.71745 48.8164 8.93359C48.6654 9.14714 48.5898 9.47917 48.5898 9.92969ZM55.8359 10.4648L56.3906 7.77344H57.4805L56.4023 12H55.457L54.6562 9.33984L53.8555 12H52.9141L51.8359 7.77344H52.9258L53.4766 10.4609L54.25 7.77344H55.0664L55.8359 10.4648ZM59.082 7.77344L59.1172 8.26172C59.4193 7.88411 59.8242 7.69531 60.332 7.69531C60.7799 7.69531 61.1133 7.82682 61.332 8.08984C61.5508 8.35286 61.6628 8.74609 61.668 9.26953V12H60.5391V9.29688C60.5391 9.05729 60.487 8.88411 60.3828 8.77734C60.2786 8.66797 60.1055 8.61328 59.8633 8.61328C59.5456 8.61328 59.3073 8.7487 59.1484 9.01953V12H58.0195V7.77344H59.082ZM63.7188 12H62.5859V6H63.7188V12ZM64.4766 9.84766C64.4766 9.42839 64.5573 9.05469 64.7188 8.72656C64.8802 8.39844 65.112 8.14453 65.4141 7.96484C65.7188 7.78516 66.0716 7.69531 66.4727 7.69531C67.043 7.69531 67.5078 7.86979 67.8672 8.21875C68.2292 8.56771 68.431 9.04167 68.4727 9.64062L68.4805 9.92969C68.4805 10.5781 68.2995 11.099 67.9375 11.4922C67.5755 11.8828 67.0898 12.0781 66.4805 12.0781C65.8711 12.0781 65.3841 11.8828 65.0195 11.4922C64.6576 11.1016 64.4766 10.5703 64.4766 9.89844V9.84766ZM65.6055 9.92969C65.6055 10.3307 65.681 10.638 65.832 10.8516C65.9831 11.0625 66.1992 11.168 66.4805 11.168C66.7539 11.168 66.9674 11.0638 67.1211 10.8555C67.2747 10.6445 67.3516 10.3086 67.3516 9.84766C67.3516 9.45443 67.2747 9.14974 67.1211 8.93359C66.9674 8.71745 66.7513 8.60938 66.4727 8.60938C66.1966 8.60938 65.9831 8.71745 65.832 8.93359C65.681 9.14714 65.6055 9.47917 65.6055 9.92969ZM71.625 12C71.5729 11.8984 71.5352 11.7721 71.5117 11.6211C71.2383 11.9258 70.8828 12.0781 70.4453 12.0781C70.0312 12.0781 69.6875 11.9583 69.4141 11.7188C69.1432 11.4792 69.0078 11.1771 69.0078 10.8125C69.0078 10.3646 69.1732 10.0208 69.5039 9.78125C69.8372 9.54167 70.3177 9.42057 70.9453 9.41797H71.4648V9.17578C71.4648 8.98047 71.4141 8.82422 71.3125 8.70703C71.2135 8.58984 71.056 8.53125 70.8398 8.53125C70.6497 8.53125 70.5 8.57682 70.3906 8.66797C70.2839 8.75911 70.2305 8.88411 70.2305 9.04297H69.1016C69.1016 8.79818 69.1771 8.57161 69.3281 8.36328C69.4792 8.15495 69.6927 7.99219 69.9688 7.875C70.2448 7.75521 70.5547 7.69531 70.8984 7.69531C71.4193 7.69531 71.832 7.82682 72.1367 8.08984C72.444 8.35026 72.5977 8.71745 72.5977 9.19141V11.0234C72.6003 11.4245 72.6562 11.7279 72.7656 11.9336V12H71.625ZM70.6914 11.2148C70.8581 11.2148 71.0117 11.1784 71.1523 11.1055C71.293 11.0299 71.3971 10.9297 71.4648 10.8047V10.0781H71.043C70.4779 10.0781 70.1771 10.2734 70.1406 10.6641L70.1367 10.7305C70.1367 10.8711 70.1862 10.987 70.2852 11.0781C70.3841 11.1693 70.5195 11.2148 70.6914 11.2148ZM73.2891 9.85547C73.2891 9.19661 73.4362 8.67188 73.7305 8.28125C74.0273 7.89062 74.4323 7.69531 74.9453 7.69531C75.3568 7.69531 75.6966 7.84896 75.9648 8.15625V6H77.0977V12H76.0781L76.0234 11.5508C75.7422 11.9023 75.3802 12.0781 74.9375 12.0781C74.4401 12.0781 74.0404 11.8828 73.7383 11.4922C73.4388 11.099 73.2891 10.5534 73.2891 9.85547ZM74.418 9.9375C74.418 10.3333 74.487 10.6367 74.625 10.8477C74.763 11.0586 74.9635 11.1641 75.2266 11.1641C75.5755 11.1641 75.8216 11.0169 75.9648 10.7227V9.05469C75.8242 8.76042 75.5807 8.61328 75.2344 8.61328C74.6901 8.61328 74.418 9.05469 74.418 9.9375ZM79.7891 9.84766C79.7891 9.42839 79.8698 9.05469 80.0312 8.72656C80.1927 8.39844 80.4245 8.14453 80.7266 7.96484C81.0312 7.78516 81.3841 7.69531 81.7852 7.69531C82.3555 7.69531 82.8203 7.86979 83.1797 8.21875C83.5417 8.56771 83.7435 9.04167 83.7852 9.64062L83.793 9.92969C83.793 10.5781 83.612 11.099 83.25 11.4922C82.888 11.8828 82.4023 12.0781 81.793 12.0781C81.1836 12.0781 80.6966 11.8828 80.332 11.4922C79.9701 11.1016 79.7891 10.5703 79.7891 9.89844V9.84766ZM80.918 9.92969C80.918 10.3307 80.9935 10.638 81.1445 10.8516C81.2956 11.0625 81.5117 11.168 81.793 11.168C82.0664 11.168 82.2799 11.0638 82.4336 10.8555C82.5872 10.6445 82.6641 10.3086 82.6641 9.84766C82.6641 9.45443 82.5872 9.14974 82.4336 8.93359C82.2799 8.71745 82.0638 8.60938 81.7852 8.60938C81.5091 8.60938 81.2956 8.71745 81.1445 8.93359C80.9935 9.14714 80.918 9.47917 80.918 9.92969ZM85.5273 7.77344L85.5625 8.26172C85.8646 7.88411 86.2695 7.69531 86.7773 7.69531C87.2253 7.69531 87.5586 7.82682 87.7773 8.08984C87.9961 8.35286 88.1081 8.74609 88.1133 9.26953V12H86.9844V9.29688C86.9844 9.05729 86.9323 8.88411 86.8281 8.77734C86.724 8.66797 86.5508 8.61328 86.3086 8.61328C85.9909 8.61328 85.7526 8.7487 85.5938 9.01953V12H84.4648V7.77344H85.5273ZM92.3164 6.73438V7.77344H93.0391V8.60156H92.3164V10.7109C92.3164 10.8672 92.3464 10.9792 92.4062 11.0469C92.4661 11.1146 92.5807 11.1484 92.75 11.1484C92.875 11.1484 92.9857 11.1393 93.082 11.1211V11.9766C92.8607 12.0443 92.6328 12.0781 92.3984 12.0781C91.6068 12.0781 91.2031 11.6784 91.1875 10.8789V8.60156H90.5703V7.77344H91.1875V6.73438H92.3164ZM94.7695 8.23438C95.069 7.875 95.4453 7.69531 95.8984 7.69531C96.8151 7.69531 97.2799 8.22786 97.293 9.29297V12H96.1641V9.32422C96.1641 9.08203 96.112 8.90365 96.0078 8.78906C95.9036 8.67188 95.7305 8.61328 95.4883 8.61328C95.1576 8.61328 94.918 8.74089 94.7695 8.99609V12H93.6406V6H94.7695V8.23438ZM100.09 12.0781C99.4701 12.0781 98.9648 11.888 98.5742 11.5078C98.1862 11.1276 97.9922 10.6211 97.9922 9.98828V9.87891C97.9922 9.45443 98.0742 9.07552 98.2383 8.74219C98.4023 8.40625 98.6341 8.14844 98.9336 7.96875C99.2357 7.78646 99.5794 7.69531 99.9648 7.69531C100.543 7.69531 100.997 7.8776 101.328 8.24219C101.661 8.60677 101.828 9.1237 101.828 9.79297V10.2539H99.1367C99.1732 10.5299 99.2826 10.7513 99.4648 10.918C99.6497 11.0846 99.8828 11.168 100.164 11.168C100.599 11.168 100.939 11.0104 101.184 10.6953L101.738 11.3164C101.569 11.556 101.34 11.7435 101.051 11.8789C100.762 12.0117 100.441 12.0781 100.09 12.0781ZM99.9609 8.60938C99.737 8.60938 99.5547 8.6849 99.4141 8.83594C99.276 8.98698 99.1875 9.20312 99.1484 9.48438H100.719V9.39453C100.714 9.14453 100.646 8.95182 100.516 8.81641C100.385 8.67839 100.201 8.60938 99.9609 8.60938Z" fill="white"/>
<path d="M48.9727 25.8027H45.1201L44.3877 28H42.0513L46.021 17.3359H48.0571L52.0488 28H49.7124L48.9727 25.8027ZM45.7134 24.0229H48.3794L47.0391 20.0312L45.7134 24.0229ZM59.688 24.1108C59.688 25.3315 59.4097 26.3105 58.853 27.0479C58.3013 27.7803 57.5542 28.1465 56.6118 28.1465C55.811 28.1465 55.1641 27.8682 54.6709 27.3115V31.0469H52.5542V20.0752H54.5171L54.5903 20.8516C55.103 20.2363 55.772 19.9287 56.5972 19.9287C57.5737 19.9287 58.333 20.29 58.875 21.0127C59.417 21.7354 59.688 22.7314 59.688 24.001V24.1108ZM57.5713 23.957C57.5713 23.2197 57.4395 22.6509 57.1758 22.2505C56.917 21.8501 56.5386 21.6499 56.0405 21.6499C55.3765 21.6499 54.9199 21.9038 54.6709 22.4116V25.6562C54.9297 26.1787 55.3911 26.4399 56.0552 26.4399C57.0659 26.4399 57.5713 25.6123 57.5713 23.957ZM68.1401 24.1108C68.1401 25.3315 67.8618 26.3105 67.3052 27.0479C66.7534 27.7803 66.0063 28.1465 65.064 28.1465C64.2632 28.1465 63.6162 27.8682 63.123 27.3115V31.0469H61.0063V20.0752H62.9692L63.0425 20.8516C63.5552 20.2363 64.2241 19.9287 65.0493 19.9287C66.0259 19.9287 66.7852 20.29 67.3271 21.0127C67.8691 21.7354 68.1401 22.7314 68.1401 24.001V24.1108ZM66.0234 23.957C66.0234 23.2197 65.8916 22.6509 65.6279 22.2505C65.3691 21.8501 64.9907 21.6499 64.4927 21.6499C63.8286 21.6499 63.3721 21.9038 63.123 22.4116V25.6562C63.3818 26.1787 63.8433 26.4399 64.5073 26.4399C65.5181 26.4399 66.0234 25.6123 66.0234 23.957ZM78.8628 25.2021C78.8628 24.7871 78.7163 24.4697 78.4233 24.25C78.1304 24.0254 77.603 23.791 76.8413 23.5469C76.0796 23.2979 75.4766 23.0537 75.0322 22.8145C73.8213 22.1602 73.2158 21.2788 73.2158 20.1704C73.2158 19.5942 73.377 19.0815 73.6992 18.6323C74.0264 18.1782 74.4927 17.8242 75.0981 17.5703C75.7085 17.3164 76.3921 17.1895 77.1489 17.1895C77.9106 17.1895 78.5894 17.3286 79.1851 17.6069C79.7808 17.8804 80.2422 18.2686 80.5693 18.7715C80.9014 19.2744 81.0674 19.8457 81.0674 20.4854H78.8701C78.8701 19.9971 78.7163 19.6187 78.4087 19.3501C78.1011 19.0767 77.6689 18.9399 77.1123 18.9399C76.5752 18.9399 76.1577 19.0547 75.8599 19.2842C75.562 19.5088 75.4131 19.8066 75.4131 20.1777C75.4131 20.5244 75.5864 20.8149 75.9331 21.0493C76.2847 21.2837 76.7998 21.5034 77.4785 21.7085C78.7285 22.0845 79.6392 22.5508 80.2104 23.1074C80.7817 23.6641 81.0674 24.3574 81.0674 25.1875C81.0674 26.1104 80.7183 26.8354 80.02 27.3628C79.3218 27.8853 78.3818 28.1465 77.2002 28.1465C76.3799 28.1465 75.6328 27.9976 74.959 27.6997C74.2852 27.397 73.77 26.9844 73.4136 26.4619C73.062 25.9395 72.8862 25.334 72.8862 24.6455H75.0908C75.0908 25.8223 75.7939 26.4106 77.2002 26.4106C77.7227 26.4106 78.1304 26.3057 78.4233 26.0957C78.7163 25.8809 78.8628 25.583 78.8628 25.2021ZM84.9565 18.127V20.0752H86.3115V21.6279H84.9565V25.583C84.9565 25.876 85.0127 26.0859 85.125 26.2129C85.2373 26.3398 85.4521 26.4033 85.7695 26.4033C86.0039 26.4033 86.2114 26.3862 86.3921 26.3521V27.9561C85.9771 28.083 85.5498 28.1465 85.1104 28.1465C83.626 28.1465 82.8691 27.397 82.8398 25.8979V21.6279H81.6826V20.0752H82.8398V18.127H84.9565ZM86.9414 23.9644C86.9414 23.1782 87.0928 22.4775 87.3955 21.8623C87.6982 21.2471 88.1328 20.771 88.6992 20.4341C89.2705 20.0972 89.9321 19.9287 90.6841 19.9287C91.7534 19.9287 92.625 20.2559 93.2988 20.9102C93.9775 21.5645 94.356 22.4531 94.4341 23.5762L94.4487 24.1182C94.4487 25.334 94.1094 26.3105 93.4307 27.0479C92.752 27.7803 91.8413 28.1465 90.6987 28.1465C89.5562 28.1465 88.6431 27.7803 87.9595 27.0479C87.2808 26.3154 86.9414 25.3193 86.9414 24.0596V23.9644ZM89.0581 24.1182C89.0581 24.8701 89.1997 25.4463 89.4829 25.8467C89.7661 26.2422 90.1714 26.4399 90.6987 26.4399C91.2114 26.4399 91.6118 26.2446 91.8999 25.854C92.188 25.4585 92.332 24.8286 92.332 23.9644C92.332 23.2271 92.188 22.6558 91.8999 22.2505C91.6118 21.8452 91.2065 21.6426 90.6841 21.6426C90.1665 21.6426 89.7661 21.8452 89.4829 22.2505C89.1997 22.6509 89.0581 23.2734 89.0581 24.1182ZM100.206 22.0601C99.9175 22.021 99.6636 22.0015 99.4438 22.0015C98.6431 22.0015 98.1182 22.2725 97.8691 22.8145V28H95.7524V20.0752H97.752L97.8105 21.02C98.2354 20.2925 98.8237 19.9287 99.5757 19.9287C99.8101 19.9287 100.03 19.9604 100.235 20.0239L100.206 22.0601ZM104.732 28.1465C103.57 28.1465 102.623 27.79 101.89 27.0771C101.163 26.3643 100.799 25.4146 100.799 24.228V24.0229C100.799 23.2271 100.953 22.5166 101.26 21.8916C101.568 21.2617 102.002 20.7783 102.564 20.4414C103.13 20.0996 103.775 19.9287 104.498 19.9287C105.582 19.9287 106.434 20.2705 107.054 20.9541C107.679 21.6377 107.991 22.6069 107.991 23.8618V24.7261H102.945C103.013 25.2437 103.218 25.6587 103.56 25.9712C103.907 26.2837 104.344 26.4399 104.871 26.4399C105.687 26.4399 106.324 26.1445 106.783 25.5537L107.823 26.7183C107.505 27.1675 107.076 27.519 106.534 27.7729C105.992 28.022 105.391 28.1465 104.732 28.1465ZM104.49 21.6426C104.07 21.6426 103.729 21.7842 103.465 22.0674C103.206 22.3506 103.04 22.7559 102.967 23.2832H105.911V23.1147C105.901 22.646 105.774 22.2847 105.53 22.0308C105.286 21.772 104.939 21.6426 104.49 21.6426Z" fill="white"/>
<defs>
<linearGradient id="paint0_linear_303_16" x1="27.3177" y1="6.58683" x2="10.4518" y2="25.3747" gradientUnits="userSpaceOnUse">
<stop stop-color="#00A0FF"/>
<stop offset="0.01" stop-color="#00A1FF"/>
<stop offset="0.26" stop-color="#00BEFF"/>
<stop offset="0.51" stop-color="#00D2FF"/>
<stop offset="0.76" stop-color="#00DFFF"/>
<stop offset="1" stop-color="#00E3FF"/>
</linearGradient>
<linearGradient id="paint1_linear_303_16" x1="40.8684" y1="18.0006" x2="13.6222" y2="18.0006" gradientUnits="userSpaceOnUse">
<stop stop-color="#FFE000"/>
<stop offset="0.41" stop-color="#FFBD00"/>
<stop offset="0.78" stop-color="#FFA500"/>
<stop offset="1" stop-color="#FF9C00"/>
</linearGradient>
<linearGradient id="paint2_linear_303_16" x1="30.7258" y1="20.3203" x2="7.85431" y2="45.7981" gradientUnits="userSpaceOnUse">
<stop stop-color="#FF3A44"/>
<stop offset="1" stop-color="#C31162"/>
</linearGradient>
<linearGradient id="paint3_linear_303_16" x1="10.9876" y1="-2.04018" x2="21.2005" y2="9.33655" gradientUnits="userSpaceOnUse">
<stop stop-color="#32A071"/>
<stop offset="0.07" stop-color="#2DA771"/>
<stop offset="0.48" stop-color="#15CF74"/>
<stop offset="0.8" stop-color="#06E775"/>
<stop offset="1" stop-color="#00F076"/>
</linearGradient>
<clipPath id="clip0_303_16">
<rect width="26" height="26" fill="white" transform="translate(14 5)"/>
</clipPath>
</defs>
</svg>
